<svg width="24" height="24" viewBox="0 0 24 24" fill="none" xmlns="http://www.w3.org/2000/svg">
<path d="M6.96937 12.5306L14.4694 20.0306C14.5391 20.1002 14.6218 20.1555 14.7128 20.1932C14.8039 20.2309 14.9014 20.2503 15 20.2503C15.0985 20.2503 15.1961 20.2309 15.2872 20.1932C15.3782 20.1555 15.4609 20.1002 15.5306 20.0306C15.6003 19.9609 15.6556 19.8781 15.6933 19.7871C15.731 19.6961 15.7504 19.5985 15.7504 19.4999C15.7504 19.4014 15.731 19.3038 15.6933 19.2128C15.6556 19.1217 15.6003 19.039 15.5306 18.9693L8.56031 11.9999L15.5306 5.03055C15.6714 4.88982 15.7504 4.69895 15.7504 4.49993C15.7504 4.30091 15.6714 4.11003 15.5306 3.9693C15.3899 3.82857 15.199 3.74951 15 3.74951C14.801 3.74951 14.6101 3.82857 14.4694 3.9693L6.96937 11.4693C6.89964 11.539 6.84432 11.6217 6.80657 11.7127C6.76883 11.8038 6.74941 11.9014 6.74941 11.9999C6.74941 12.0985 6.76883 12.1961 6.80657 12.2871C6.84432 12.3782 6.89964 12.4609 6.96937 12.5306Z" fill="white"/>
</svg>
