<svg width="36" height="35" viewBox="0 0 36 35" fill="none" xmlns="http://www.w3.org/2000/svg">
<path d="M16.8754 10.6322V4.78569C16.8754 4.16404 17.3713 3.646 17.9983 3.646C18.5598 3.646 19.0355 4.0813 19.1109 4.63268L19.1213 4.78569V10.6322L26.0919 10.6326C29.5628 10.6326 32.4143 13.4748 32.5744 17.0195L32.5815 17.334V24.683C32.5815 28.2525 29.8291 31.1825 26.4099 31.347L26.1065 31.3543H9.88986C6.41902 31.3543 3.58124 28.5263 3.42191 24.9687L3.41486 24.6529L3.41486 17.319C3.41486 13.7495 6.15347 10.8053 9.57193 10.6399L9.87527 10.6326H16.8753V19.9694L14.5419 17.5599C14.1044 17.1082 13.3899 17.1082 12.9524 17.5599C12.7336 17.7858 12.6315 18.087 12.6315 18.3882C12.6315 18.6171 12.6969 18.8556 12.835 19.0576L12.9524 19.2014L17.1961 23.5987C17.4003 23.8246 17.6919 23.9451 17.9982 23.9451C18.2412 23.9451 18.4843 23.8615 18.6767 23.7028L18.7857 23.5987L23.0294 19.2014C23.4669 18.7496 23.4669 18.0117 23.0294 17.5599C22.6317 17.1492 22.005 17.1119 21.5656 17.4479L21.4399 17.5599L19.1211 19.9694V10.6326L16.8754 10.6322Z" fill="#2B9273"/>
</svg>
