<svg width="33" height="34" viewBox="0 0 33 34" fill="none" xmlns="http://www.w3.org/2000/svg">
<g filter="url(#filter0_d_12_3639)">
<rect x="6" y="2" width="21" height="22" rx="10.5" fill="white"/>
<g clip-path="url(#clip0_12_3639)">
<path d="M14.5 18.5001H11.5C11.3674 18.5001 11.2402 18.4474 11.1464 18.3536C11.0527 18.2599 11 18.1327 11 18.0001V15.207C11.0001 15.0745 11.0527 14.9475 11.1463 14.8538L18.8538 7.14633C18.9475 7.05263 19.0746 7 19.2072 7C19.3397 7 19.4669 7.05263 19.5606 7.14633L22.3538 9.93758C22.4474 10.0313 22.5001 10.1585 22.5001 10.291C22.5001 10.4236 22.4474 10.5507 22.3538 10.6445L14.5 18.5001Z" stroke="#A6A6A6" stroke-width="1.5" stroke-linecap="round" stroke-linejoin="round"/>
<path d="M22 18.5H14.5" stroke="#A6A6A6" stroke-width="1.5" stroke-linecap="round" stroke-linejoin="round"/>
<path d="M17 9L20.5 12.5" stroke="#A6A6A6" stroke-width="1.5" stroke-linecap="round" stroke-linejoin="round"/>
</g>
</g>
<defs>
<filter id="filter0_d_12_3639" x="0" y="0" width="33" height="34" filterUnits="userSpaceOnUse" color-interpolation-filters="sRGB">
<feFlood flood-opacity="0" result="BackgroundImageFix"/>
<feColorMatrix in="SourceAlpha" type="matrix" values="0 0 0 0 0 0 0 0 0 0 0 0 0 0 0 0 0 0 127 0" result="hardAlpha"/>
<feOffset dy="4"/>
<feGaussianBlur stdDeviation="3"/>
<feComposite in2="hardAlpha" operator="out"/>
<feColorMatrix type="matrix" values="0 0 0 0 0 0 0 0 0 0 0 0 0 0 0 0 0 0 0.1 0"/>
<feBlend mode="normal" in2="BackgroundImageFix" result="effect1_dropShadow_12_3639"/>
<feBlend mode="normal" in="SourceGraphic" in2="effect1_dropShadow_12_3639" result="shape"/>
</filter>
<clipPath id="clip0_12_3639">
<rect width="16" height="16" fill="white" transform="translate(8.5 5)"/>
</clipPath>
</defs>
</svg>
