<svg width="24" height="24" viewBox="0 0 24 24" fill="none" xmlns="http://www.w3.org/2000/svg">
<path d="M5.10859 19.6199H19.0996C20.7736 19.6199 21.7451 18.6484 21.7451 16.7922V7.20757C21.7451 5.35136 20.7649 4.37988 18.8914 4.37988H4.90042C3.22636 4.37988 2.25488 5.34268 2.25488 7.20757V16.7922C2.25488 18.6484 3.23503 19.6199 5.10859 19.6199ZM11.0242 12.2991L4.70959 6.05394C4.83102 6.02792 4.96981 6.01057 5.11726 6.01057H18.8827C19.0388 6.01057 19.1776 6.02792 19.3077 6.06261L13.0018 12.2991C12.6375 12.6548 12.3339 12.8109 12.013 12.8109C11.6921 12.8109 11.3885 12.6461 11.0242 12.2991ZM3.8769 7.329L8.59549 11.9695L3.8769 16.6361V7.329ZM15.4305 11.9695L20.1231 7.35502V16.6187L15.4305 11.9695ZM5.11726 17.9805C4.96113 17.9805 4.81368 17.9632 4.68357 17.9372L9.6537 13.0104L10.1221 13.4788C10.7553 14.0946 11.3625 14.3548 12.013 14.3548C12.6549 14.3548 13.2707 14.0946 13.8952 13.4788L14.3723 13.0104L19.3337 17.9285C19.195 17.9632 19.0475 17.9805 18.8827 17.9805H5.11726Z" fill="#1C1C1E"/>
</svg>
