<svg width="25" height="24" viewBox="0 0 25 24" fill="none" xmlns="http://www.w3.org/2000/svg">
<path d="M20.54 6.81994L14.78 2.78994C13.21 1.68994 10.8 1.74994 9.28999 2.91994L4.27999 6.82994C3.27999 7.60994 2.48999 9.20994 2.48999 10.4699V17.3699C2.48999 19.9199 4.55999 21.9999 7.10999 21.9999H17.89C20.44 21.9999 22.51 19.9299 22.51 17.3799V10.5999C22.51 9.24994 21.64 7.58994 20.54 6.81994ZM13.25 17.9999C13.25 18.4099 12.91 18.7499 12.5 18.7499C12.09 18.7499 11.75 18.4099 11.75 17.9999V14.9999C11.75 14.5899 12.09 14.2499 12.5 14.2499C12.91 14.2499 13.25 14.5899 13.25 14.9999V17.9999Z" fill="#2B9273"/>
</svg>
