<svg width="24" height="24" viewBox="0 0 24 24" fill="none" xmlns="http://www.w3.org/2000/svg">
<path fill-rule="evenodd" clip-rule="evenodd" d="M3.36011 7.20003V16.8C3.36011 17.8604 4.21972 18.72 5.28011 18.72H18.7201C19.7805 18.72 20.6401 17.8604 20.6401 16.8V7.20003C20.6401 6.13964 19.7805 5.28003 18.7201 5.28003H5.28011C4.21972 5.28003 3.36011 6.13964 3.36011 7.20003Z" stroke="#181D18" stroke-width="1.6" stroke-linecap="round" stroke-linejoin="round"/>
<path d="M14.8799 10.0801H17.7599" stroke="#181D18" stroke-width="1.6" stroke-linecap="round"/>
<path d="M14.8799 12.96H17.7599" stroke="#181D18" stroke-width="1.6" stroke-linecap="round"/>
<path fill-rule="evenodd" clip-rule="evenodd" d="M11.04 10.0799C11.04 11.1403 10.1804 11.9999 9.11995 11.9999C8.05956 11.9999 7.19995 11.1403 7.19995 10.0799C7.19995 9.01952 8.05956 8.15991 9.11995 8.15991C9.62914 8.15991 10.1175 8.36219 10.4776 8.72227C10.8377 9.08234 11.04 9.5707 11.04 10.0799Z" stroke="#181D18" stroke-width="1.6" stroke-linecap="round" stroke-linejoin="round"/>
<path d="M5.28003 15.8401C7.95171 12.8286 11.0899 13.7752 12.96 15.8401" stroke="#181D18" stroke-width="1.6" stroke-linecap="round"/>
</svg>
