<svg width="25" height="24" viewBox="0 0 25 24" fill="none" xmlns="http://www.w3.org/2000/svg">
<path d="M8.0169 21.51H16.9832C18.4617 21.51 19.1866 20.7755 19.1866 19.173V12.3911C19.1866 10.9698 18.6143 10.2353 17.4506 10.0827V7.86023C17.4506 4.23556 15.0373 2.48999 12.5 2.48999C9.96277 2.48999 7.5495 4.23556 7.5495 7.86023V10.0827C6.38579 10.2353 5.81348 10.9698 5.81348 12.3911V19.173C5.81348 20.7755 6.53841 21.51 8.0169 21.51ZM9.38092 7.68854C9.38092 5.46604 10.7926 4.2451 12.5 4.2451C14.1979 4.2451 15.6192 5.46604 15.6192 7.68854V10.0541H9.38092V7.68854ZM8.32213 19.7835C7.90243 19.7835 7.69258 19.5832 7.69258 19.0872V12.4769C7.69258 11.9714 7.90243 11.7901 8.32213 11.7901H16.6875C17.1072 11.7901 17.3075 11.9714 17.3075 12.4769V19.0872C17.3075 19.5832 17.1072 19.7835 16.6875 19.7835H8.32213Z" fill="#1C1C1E"/>
</svg>
