<svg width="24" height="24" viewBox="0 0 24 24" fill="none" xmlns="http://www.w3.org/2000/svg">
<path d="M10.3125 20.25C10.3125 20.3992 10.2532 20.5423 10.1477 20.6477C10.0423 20.7532 9.89918 20.8125 9.75 20.8125H4.5C4.1519 20.8125 3.81806 20.6742 3.57192 20.4281C3.32578 20.1819 3.1875 19.8481 3.1875 19.5V4.5C3.1875 4.1519 3.32578 3.81806 3.57192 3.57192C3.81806 3.32578 4.1519 3.1875 4.5 3.1875H9.75C9.89918 3.1875 10.0423 3.24676 10.1477 3.35225C10.2532 3.45774 10.3125 3.60082 10.3125 3.75C10.3125 3.89918 10.2532 4.04226 10.1477 4.14775C10.0423 4.25324 9.89918 4.3125 9.75 4.3125H4.5C4.45027 4.3125 4.40258 4.33225 4.36742 4.36742C4.33225 4.40258 4.3125 4.45027 4.3125 4.5V19.5C4.3125 19.5497 4.33225 19.5974 4.36742 19.6326C4.40258 19.6677 4.45027 19.6875 4.5 19.6875H9.75C9.89918 19.6875 10.0423 19.7468 10.1477 19.8523C10.2532 19.9577 10.3125 20.1008 10.3125 20.25ZM20.6475 11.6025L16.8975 7.8525C16.7909 7.75314 16.6498 7.69905 16.5041 7.70162C16.3584 7.70419 16.2193 7.76322 16.1163 7.86628C16.0132 7.96934 15.9542 8.10838 15.9516 8.25411C15.949 8.39983 16.0031 8.54087 16.1025 8.6475L18.8916 11.4375H9.75C9.60082 11.4375 9.45774 11.4968 9.35225 11.6023C9.24676 11.7077 9.1875 11.8508 9.1875 12C9.1875 12.1492 9.24676 12.2923 9.35225 12.3977C9.45774 12.5032 9.60082 12.5625 9.75 12.5625H18.8916L16.1025 15.3525C16.0472 15.404 16.0029 15.4661 15.9722 15.5351C15.9414 15.6041 15.9249 15.6786 15.9236 15.7541C15.9222 15.8296 15.9361 15.9047 15.9644 15.9747C15.9927 16.0447 16.0348 16.1084 16.0882 16.1618C16.1416 16.2152 16.2053 16.2573 16.2753 16.2856C16.3453 16.3139 16.4204 16.3278 16.4959 16.3264C16.5714 16.3251 16.6459 16.3086 16.7149 16.2778C16.7839 16.2471 16.846 16.2028 16.8975 16.1475L20.6475 12.3975C20.7528 12.292 20.812 12.1491 20.812 12C20.812 11.8509 20.7528 11.708 20.6475 11.6025Z" fill="#FF0101"/>
</svg>
