<svg width="25" height="25" viewBox="0 0 25 25" fill="none" xmlns="http://www.w3.org/2000/svg">
<path d="M12.5044 12.5402C14.6629 12.5402 16.411 10.6315 16.411 8.29463C16.411 5.99348 14.6629 4.16504 12.5044 4.16504C10.3549 4.16504 8.58889 6.02023 8.59781 8.31247C8.60673 10.6404 10.346 12.5402 12.5044 12.5402ZM12.5044 10.9793C11.2736 10.9793 10.23 9.8109 10.23 8.31247C10.2211 6.84972 11.2647 5.7259 12.5044 5.7259C13.7531 5.7259 14.7788 6.83188 14.7788 8.29463C14.7788 9.79306 13.7442 10.9793 12.5044 10.9793ZM6.93883 20.835H18.0611C19.6041 20.835 20.3444 20.3445 20.3444 19.292C20.3444 16.8392 17.2851 13.5748 12.5044 13.5748C7.72373 13.5748 4.65552 16.8392 4.65552 19.292C4.65552 20.3445 5.39581 20.835 6.93883 20.835ZM6.66234 19.2742C6.44828 19.2742 6.36801 19.2028 6.36801 19.0423C6.36801 17.6776 8.57105 15.1357 12.5044 15.1357C16.4289 15.1357 18.6319 17.6776 18.6319 19.0423C18.6319 19.2028 18.5516 19.2742 18.3376 19.2742H6.66234Z" fill="#181D18"/>
</svg>
