<svg width="306" height="230" viewBox="0 0 306 230" fill="none" xmlns="http://www.w3.org/2000/svg">
<g id="sent_illustration">
<g id="freepik--background-complete--inject-128">
<rect id="Rectangle" y="201.512" width="305.743" height="0.153873" fill="#E0E0E0"/>
<rect id="Rectangle_2" x="209.899" y="208.03" width="21.0351" height="0.153873" fill="#E0E0E0"/>
<rect id="Rectangle_3" x="56.061" y="208.104" width="11.8384" height="0.153873" fill="#E0E0E0"/>
<rect id="Rectangle_4" x="129.488" y="207.747" width="23.9947" height="0.153873" fill="#E0E0E0"/>
<rect id="Rectangle_5" x="118.151" y="205.556" width="10.7255" height="0.153873" fill="#E0E0E0"/>
<rect id="Rectangle_6" x="227.21" y="205.636" width="32.4027" height="0.153873" fill="#E0E0E0"/>
<path id="Shape" fill-rule="evenodd" clip-rule="evenodd" d="M26.8504 174.061H144.922C146.851 174.061 148.414 172.487 148.414 170.546V3.51446C148.414 1.57348 146.851 0 144.922 0H26.8504C24.9363 0.00330029 23.3817 1.55713 23.3649 3.48368V170.546C23.3649 172.485 24.9244 174.058 26.8504 174.061ZM23.5179 3.48368C23.5179 1.63008 25.009 0.126492 26.8505 0.123098H144.922C146.765 0.126485 148.258 1.62909 148.261 3.48368V170.546C148.258 172.401 146.765 173.904 144.922 173.907H26.8505C25.009 173.904 23.5179 172.4 23.5179 170.546V3.48368Z" fill="#E0E0E0"/>
<path id="Shape_2" fill-rule="evenodd" clip-rule="evenodd" d="M159.115 174.061H277.193C279.116 174.054 280.672 172.483 280.672 170.546V3.48368C280.656 1.55952 279.105 0.00666621 277.193 0H159.115C157.2 0.003264 155.643 1.55613 155.623 3.48368V170.546C155.627 172.486 157.188 174.058 159.115 174.061ZM155.776 3.48368C155.78 1.62909 157.272 0.126485 159.115 0.123098H277.193C279.035 0.126485 280.528 1.62909 280.532 3.48368V170.546C280.528 172.401 279.035 173.904 277.193 173.907H159.115C157.272 173.904 155.78 172.401 155.776 170.546V3.48368Z" fill="#E0E0E0"/>
<path id="Path" d="M268.632 124.471C261.111 112.943 267.978 100.553 266.834 87.7261C265.691 74.8993 253.583 72.1049 255.877 61.26C258.53 48.6547 251.455 36.5603 243.439 36.5603C235.422 36.5603 228.354 48.6239 231.007 61.2415C233.3 72.1049 221.224 74.9054 220.05 87.7076C218.875 100.51 225.773 112.943 218.246 124.452C210.718 135.962 212.699 151.245 216.937 158.822C218.064 160.832 219.423 162.702 220.985 164.392C226.791 170.665 234.925 174.227 243.442 174.227C251.959 174.227 260.093 170.665 265.899 164.392C267.457 162.7 268.814 160.83 269.941 158.822C274.184 151.263 276.16 136.024 268.632 124.471Z" fill="#E0E0E0"/>
<path id="Path_2" d="M243.439 133.217C244.448 133.217 245.415 133.62 246.128 134.338C246.842 135.056 247.242 136.03 247.242 137.045V201.512H239.635V137.045C239.635 136.03 240.036 135.056 240.749 134.338C241.463 133.62 242.43 133.217 243.439 133.217Z" fill="#F0F0F0"/>
<path id="Path_3" d="M195.621 201.512H185.28V137.051C185.287 134.175 187.602 131.845 190.46 131.838C193.317 131.845 195.632 134.175 195.639 137.051L195.621 201.512Z" fill="#E0E0E0"/>
<ellipse id="Oval" cx="190.442" cy="152.014" rx="31.9013" ry="32.1102" fill="#F0F0F0"/>
<ellipse id="Oval_2" cx="215.726" cy="139.328" rx="12.6497" ry="12.577" transform="rotate(-76.05 215.726 139.328)" fill="#F0F0F0"/>
<ellipse id="Oval_3" cx="164.636" cy="131.834" rx="7.48927" ry="7.44305" transform="rotate(-80.75 164.636 131.834)" fill="#F0F0F0"/>
<ellipse id="Oval_4" cx="172.733" cy="127.961" rx="5.22209" ry="5.2563" fill="#F0F0F0"/>
<path id="Path_4" d="M124.743 163.037C119.783 163.781 115.042 165.602 110.85 168.374C110.814 163.499 109.927 158.877 107.652 155.141C104.191 158.532 101.384 162.927 99.0913 167.654C98.2536 158.797 95.9361 150.18 90.8057 144.72C83.1193 149.589 79.1569 157.701 77.2735 166.293C74.162 160.5 69.6459 155.592 64.1449 152.026C59.4425 157.012 57.9383 163.905 58.0667 170.971C52.7223 164.705 46.7909 159.818 41.0062 159.246C39.5815 169.149 42.6144 178.492 46.4729 185.878C51.5781 195.536 61.5745 201.556 72.4427 201.518H97.5687C108.276 201.518 118.316 195.769 123.337 186.248C126.51 180.216 128.027 172.454 124.743 163.037Z" fill="#E0E0E0"/>
<path id="Path_5" d="M117.564 35.1689C120.665 26.0166 118.176 19.4985 110.612 19.4985C105.854 19.4985 99.9535 22.0651 94.2055 26.2382C93.5574 23.8562 91.729 22.4344 88.7878 22.4344C83.6085 22.4344 76.4724 26.8413 70.8773 33.0578C69.302 31.5514 67.2166 30.7042 65.0437 30.6882C60.0846 30.405 54.0859 32.9409 48.8699 37.0585C48.3396 36.3114 47.4829 35.8688 46.5707 35.8706C43.7151 35.7106 39.8444 38.271 37.9304 41.5824C37.8142 41.7855 37.7103 41.9886 37.6002 42.1979H119.069C119.313 39.305 118.806 36.8923 117.564 35.1689Z" fill="#F0F0F0"/>
<path id="Path_6" d="M117.815 90.7419C119.332 86.2734 118.127 83.0913 114.421 83.0913C112.092 83.0913 109.211 84.3223 106.405 86.3842C106.092 85.1977 104.97 84.4152 103.757 84.5377C101.232 84.5377 97.7461 86.6919 95.0066 89.7325C94.2387 88.9942 93.219 88.5801 92.1571 88.5753C89.7112 88.4338 86.8066 89.6709 84.2567 91.6836C84.0059 91.3226 83.5996 91.1033 83.1621 91.0927C81.7679 91.0127 79.8784 92.2621 78.9429 93.8809L78.7778 94.1763H118.573C118.74 92.9769 118.47 91.7574 117.815 90.7419Z" fill="#F0F0F0"/>
<path id="Path_7" d="M209.599 56.9269C209.285 56.8825 208.968 56.8599 208.651 56.8592C208.945 52.3969 207.251 49.541 203.625 49.541C201.014 49.541 197.804 51.0305 194.538 53.5479C195.474 44.8817 192.478 39.25 185.69 39.25C180.223 39.25 173.295 42.9429 166.453 48.8886C165.841 45.4911 163.836 43.4477 160.448 43.4477C154.498 43.4477 146.041 49.7503 139.26 58.638C137.695 56.5622 135.28 55.311 132.693 55.2343C127.03 54.8342 119.992 58.4533 113.736 64.3497C113.272 63.3351 112.272 62.6774 111.162 62.6571C108.062 62.4356 103.824 65.6915 101.311 70.043H214.583C217.243 63.445 215.127 57.6717 209.599 56.9269Z" fill="#F0F0F0"/>
</g>
<g id="freepik--Shadow--inject-128">
<ellipse id="Oval_5" cx="152.872" cy="222.34" rx="118.561" ry="6.96736" fill="#F5F5F5"/>
</g>
<g id="freepik--Mail--inject-128">
<path id="Path_8" d="M29.8772 58.8162L169.278 79.0166L187.983 98.0168L29.8772 58.8162Z" fill="#2B9273"/>
<path id="Path_9" opacity="0.6" d="M29.8772 58.8162L169.278 79.0166L187.983 98.0168L29.8772 58.8162Z" fill="white"/>
<path id="Path_10" d="M29.8772 58.8162L169.278 79.0166L162.808 106.492L29.8772 58.8162Z" fill="#2B9273"/>
<path id="Path_11" opacity="0.2" d="M29.8772 58.8162L169.278 79.0166L162.808 106.492L29.8772 58.8162Z" fill="black"/>
<path id="Path_12" d="M159.946 27.0078L168.036 65.1682C168.475 67.243 167.162 69.2833 165.101 69.729L92.897 85.2394C90.8364 85.6769 88.8117 84.3568 88.3659 82.285L80.2698 44.1246C79.8355 42.0485 81.1503 40.0097 83.211 39.5638L155.415 24.0534C157.478 23.6163 159.503 24.9397 159.946 27.0139V27.0078Z" fill="#2B9273"/>
<path id="Path_13" opacity="0.4" d="M159.946 27.0078L168.036 65.1682C168.475 67.243 167.162 69.2833 165.101 69.729L92.897 85.2394C90.8364 85.6769 88.8117 84.3568 88.3659 82.285L80.2698 44.1246C79.8355 42.0485 81.1503 40.0097 83.211 39.5638L155.415 24.0534C157.478 23.6163 159.503 24.9397 159.946 27.0139V27.0078Z" fill="black"/>
<path id="Path_14" d="M158.167 24.5088L134.044 54.317C129.435 60.0104 121.513 61.7127 114.996 58.41L80.8814 41.1147C81.4333 40.3167 82.2663 39.76 83.2111 39.5575L155.415 24.0472C156.358 23.8453 157.341 24.0102 158.167 24.5088Z" fill="#2B9273"/>
<path id="Path_15" d="M29.8772 58.8162L144.855 86.3225L162.808 106.492L29.8772 58.8162Z" fill="#2B9273"/>
<path id="Path_16" opacity="0.6" d="M29.8772 58.8162L144.855 86.3225L162.808 106.492L29.8772 58.8162Z" fill="white"/>
<path id="Rectangle_7" d="M71.5095 85.8597L71.8186 85.3286L84.6136 92.8725L84.3046 93.4036L71.5095 85.8597Z" fill="#2B9273"/>
<path id="Rectangle_8" d="M89.9535 96.7296L90.2626 96.1985L94.8635 98.9112L94.5545 99.4423L89.9535 96.7296Z" fill="#2B9273"/>
<path id="Path_17" d="M29.8772 58.8162L144.855 86.3225L122.505 113.435L29.8772 58.8162Z" fill="#2B9273"/>
<path id="Path_18" d="M183.666 123.258C183.511 123.259 183.358 123.229 183.214 123.172L164.49 115.712C163.866 115.459 163.562 114.747 163.809 114.118C164.057 113.489 164.762 113.178 165.389 113.423L184.119 120.882C184.665 121.1 184.981 121.678 184.87 122.259C184.76 122.84 184.254 123.26 183.666 123.258Z" fill="#2B9273"/>
<path id="Path_19" opacity="0.3" d="M183.666 123.258C183.511 123.259 183.358 123.229 183.214 123.172L164.49 115.712C163.866 115.459 163.562 114.747 163.809 114.118C164.057 113.489 164.762 113.178 165.389 113.423L184.119 120.882C184.665 121.1 184.981 121.678 184.87 122.259C184.76 122.84 184.254 123.26 183.666 123.258Z" fill="black"/>
<path id="Path_20" d="M182.559 112.45C182.406 112.449 182.254 112.418 182.113 112.358L172.054 108.326C171.645 108.167 171.352 107.799 171.287 107.362C171.221 106.925 171.393 106.486 171.738 106.213C172.082 105.939 172.546 105.872 172.953 106.037L183.012 110.05C183.639 110.298 183.949 111.012 183.703 111.644C183.526 112.127 183.07 112.448 182.559 112.45Z" fill="#2B9273"/>
<path id="Path_21" opacity="0.5" d="M182.559 112.45C182.406 112.449 182.254 112.418 182.113 112.358L172.054 108.326C171.645 108.167 171.352 107.799 171.287 107.362C171.221 106.925 171.393 106.486 171.738 106.213C172.082 105.939 172.546 105.872 172.953 106.037L183.012 110.05C183.639 110.298 183.949 111.012 183.703 111.644C183.526 112.127 183.07 112.448 182.559 112.45Z" fill="white"/>
<path id="Path_22" d="M161.53 123.098C161.378 123.096 161.227 123.067 161.084 123.012L142.819 115.712C142.41 115.553 142.117 115.185 142.052 114.748C141.986 114.311 142.158 113.872 142.503 113.599C142.847 113.325 143.311 113.258 143.718 113.423L161.983 120.698C162.53 120.915 162.845 121.493 162.735 122.074C162.624 122.655 162.118 123.075 161.53 123.074V123.098Z" fill="#2B9273"/>
<path id="Path_23" opacity="0.3" d="M161.53 123.098C161.378 123.096 161.227 123.067 161.084 123.012L142.819 115.712C142.41 115.553 142.117 115.185 142.052 114.748C141.986 114.311 142.158 113.872 142.503 113.599C142.847 113.325 143.311 113.258 143.718 113.423L161.983 120.698C162.53 120.915 162.845 121.493 162.735 122.074C162.624 122.655 162.118 123.075 161.53 123.074V123.098Z" fill="black"/>
</g>
<g id="freepik--Character--inject-128">
<path id="Path_24" d="M227.656 67.5933C229.277 70.7754 230.763 73.9636 232.175 77.2257C233.588 80.4878 234.902 83.793 236.052 87.2582L236.468 88.5692C236.541 88.8031 236.645 89.1847 236.706 89.4555C236.767 89.7263 236.822 90.0341 236.853 90.2926C236.993 91.2856 237.064 92.2871 237.067 93.29C237.076 95.1397 236.99 96.9887 236.81 98.8294C236.469 102.393 235.913 105.932 235.147 109.428L231.79 109.053C231.747 105.588 231.717 102.085 231.594 98.6694C231.539 96.9707 231.441 95.2658 231.27 93.6655C231.193 92.914 231.07 92.1679 230.903 91.4312C230.873 91.2589 230.824 91.1296 230.787 90.9881C230.75 90.8465 230.714 90.7973 230.653 90.6126L230.188 89.4494C228.91 86.335 227.473 83.196 226.005 80.0693L221.566 70.6892L227.656 67.5933Z" fill="#E4897B"/>
<path id="Path_25" d="M231.839 107.969L230.273 110.918L235.275 112.321C235.275 112.321 236.229 109.951 235.092 108.08L231.839 107.969Z" fill="#E4897B"/>
<path id="Path_26" d="M228.359 115.165L232.958 115.534L235.275 112.321L230.273 110.918L228.359 115.165Z" fill="#E4897B"/>
<path id="Path_27" d="M206.603 46.322C206.535 46.6851 206.285 46.9374 206.052 46.8882C205.82 46.839 205.692 46.5128 205.765 46.1558C205.838 45.7988 206.083 45.5403 206.315 45.5895C206.548 45.6388 206.682 45.965 206.603 46.322Z" fill="#263238"/>
<path id="Path_28" d="M206.322 46.9375C205.676 47.9445 204.896 48.8577 204.004 49.6518C204.426 50.1031 205.022 50.346 205.637 50.3165L206.322 46.9375Z" fill="#DE5753"/>
<path id="Path_29" d="M208.303 44.6049C208.245 44.6034 208.19 44.5791 208.15 44.5372C207.794 44.127 207.265 43.9121 206.725 43.9586C206.621 43.9596 206.531 43.8844 206.512 43.7806C206.494 43.6769 206.553 43.5751 206.652 43.5401C207.343 43.452 208.031 43.7177 208.486 44.2479C208.568 44.3316 208.568 44.4657 208.486 44.5495C208.437 44.5951 208.369 44.6155 208.303 44.6049Z" fill="#263238"/>
<path id="Path_30" d="M216.717 51.3506C216.075 54.6619 215.433 60.7184 217.732 62.928C217.732 62.928 216.833 66.2824 210.724 66.2824C203.998 66.2824 207.52 62.928 207.52 62.928C211.189 62.0478 211.085 59.3089 210.449 56.7423L216.717 51.3506Z" fill="#E4897B"/>
<path id="Path_31" d="M218.655 65.0144C219.139 63.3956 219.67 61.543 218.57 60.9583C217.347 60.3428 210.7 59.6657 208.407 60.8659C206.114 62.0661 206.768 65.359 206.768 65.359L218.655 65.0144Z" fill="#263238"/>
<path id="Shape_3" fill-rule="evenodd" clip-rule="evenodd" d="M231.68 218.343C231.984 218.626 232.372 218.752 232.756 218.691C233.151 218.688 233.544 218.637 233.93 218.539C233.971 218.53 234.003 218.493 234.01 218.444C234.015 218.395 233.999 218.346 233.967 218.314C233.966 218.313 233.964 218.312 233.961 218.31C233.857 218.226 232.662 217.274 232.016 217.444C231.873 217.481 231.751 217.589 231.68 217.741C231.571 217.921 231.571 218.163 231.68 218.343ZM232.065 217.676H232.194V217.69C232.714 217.777 233.211 218 233.649 218.343C232.976 218.473 232.059 218.473 231.869 218.169C231.833 218.14 231.772 218.053 231.869 217.85C231.91 217.76 231.981 217.696 232.065 217.676Z" fill="#2B9273"/>
<path id="Shape_4" fill-rule="evenodd" clip-rule="evenodd" d="M233.857 218.389H233.906C233.918 218.389 233.931 218.387 233.942 218.383C233.977 218.363 233.996 218.324 233.991 218.284C233.991 218.229 233.9 216.924 233.38 216.493C233.253 216.389 233.09 216.34 232.927 216.358C232.761 216.357 232.617 216.476 232.585 216.641C232.493 217.158 233.392 218.13 233.857 218.389ZM232.976 216.542H233.001L232.976 216.554C233.081 216.54 233.187 216.569 233.27 216.635C233.582 217.043 233.765 217.536 233.796 218.05C233.337 217.699 232.762 216.955 232.817 216.653C232.818 216.652 232.818 216.65 232.818 216.649C232.825 216.62 232.843 216.542 232.976 216.542Z" fill="#2B9273"/>
<path id="Shape_5" fill-rule="evenodd" clip-rule="evenodd" d="M204.463 218.295C204.652 218.599 205.209 218.693 205.783 218.693C206.243 218.693 206.701 218.642 207.153 218.541C207.197 218.533 207.231 218.492 207.239 218.44C207.246 218.388 207.226 218.337 207.19 218.309C207.188 218.308 207.184 218.306 207.18 218.303C207.029 218.204 205.523 217.214 204.805 217.446C204.661 217.486 204.537 217.593 204.463 217.744C204.364 217.909 204.364 218.129 204.463 218.295ZM204.866 217.664C204.933 217.652 205.001 217.652 205.068 217.664V217.678C205.689 217.757 206.292 217.979 206.841 218.331C205.997 218.469 204.86 218.447 204.658 218.113C204.609 218.07 204.579 217.997 204.658 217.838C204.704 217.747 204.779 217.684 204.866 217.664Z" fill="#2B9273"/>
<path id="Shape_6" fill-rule="evenodd" clip-rule="evenodd" d="M207.098 218.389H207.141C207.169 218.399 207.2 218.397 207.227 218.383C207.258 218.36 207.274 218.322 207.27 218.284C207.269 218.283 207.269 218.281 207.269 218.279C207.258 218.174 207.134 216.999 206.572 216.542C206.406 216.392 206.182 216.324 205.961 216.358C205.667 216.388 205.563 216.536 205.563 216.659C205.484 217.158 206.554 218.149 207.098 218.389ZM205.979 216.542H206.046L206.071 216.555C206.186 216.562 206.295 216.608 206.383 216.684C206.727 217.071 206.941 217.558 206.994 218.075C206.456 217.742 205.722 216.973 205.771 216.665C205.772 216.664 205.772 216.663 205.772 216.661C205.779 216.631 205.799 216.542 205.979 216.542Z" fill="#2B9273"/>
<path id="Path_32" d="M212.082 218.278H207.587L207.141 207.808H211.636L212.082 218.278Z" fill="#E4897B"/>
<path id="Path_33" d="M239.055 218.278H234.56L232.304 207.808H236.792L239.055 218.278Z" fill="#E4897B"/>
<path id="Path_34" d="M234.242 217.755H239.287C239.472 217.756 239.632 217.887 239.672 218.069L240.559 222.088C240.6 222.286 240.549 222.492 240.42 222.648C240.292 222.804 240.1 222.892 239.898 222.888C238.137 222.857 237.281 222.753 235.062 222.753C233.698 222.753 230.885 222.9 228.996 222.9C227.106 222.9 226.868 221.054 227.638 220.851C231.099 220.088 232.402 219.035 233.508 218.038C233.709 217.855 233.971 217.754 234.242 217.755Z" fill="#263238"/>
<path id="Path_35" d="M207.618 217.755H212.51C212.695 217.756 212.855 217.887 212.895 218.069L213.782 222.088C213.825 222.284 213.776 222.49 213.65 222.646C213.524 222.802 213.333 222.891 213.134 222.888C211.366 222.857 208.81 222.753 206.584 222.753C203.986 222.753 201.735 222.9 198.684 222.9C196.85 222.9 196.33 221.054 197.1 220.851C200.616 220.075 203.484 219.995 206.523 218.112C206.847 217.89 207.227 217.767 207.618 217.755V217.755Z" fill="#263238"/>
<path id="Path_36" d="M205.459 70.8678C201.703 70.5749 197.965 70.0756 194.263 69.3722C192.429 69.0152 190.557 68.6151 188.699 68.1104C186.793 67.6196 184.922 67.0027 183.097 66.264C182.626 66.067 182.15 65.8516 181.679 65.6485C181.149 65.3856 180.638 65.0853 180.15 64.7498C179.269 64.1651 178.511 63.5558 177.759 62.9526C176.261 61.7216 174.873 60.4906 173.479 59.2289C170.745 56.6808 168.153 54.0465 165.652 51.2767L167.902 48.7471L176.775 55.1666C178.236 56.2253 179.716 57.2655 181.171 58.2441C181.893 58.7303 182.633 59.1858 183.311 59.5736C183.595 59.7365 183.889 59.8804 184.192 60.0044C184.553 60.146 184.92 60.2875 185.305 60.4229C188.61 61.4472 191.989 62.2087 195.413 62.7003C198.904 63.2542 202.512 63.7097 205.997 64.079L205.459 70.8678Z" fill="#E4897B"/>
<path id="Path_37" d="M225.773 63.9497C229.986 64.9222 234.242 77.312 234.242 77.312L225.577 83.5715C225.577 83.5715 223.131 77.7982 220.771 72.7512C218.301 67.4641 221.468 62.9587 225.773 63.9497Z" fill="#2B9273"/>
<path id="Path_38" opacity="0.4" d="M225.773 63.9497C229.986 64.9222 234.242 77.312 234.242 77.312L225.577 83.5715C225.577 83.5715 223.131 77.7982 220.771 72.7512C218.301 67.4641 221.468 62.9587 225.773 63.9497Z" fill="black"/>
<path id="Path_39" d="M223.345 70.72L221.627 74.5914C223.407 78.4567 225.033 82.2851 225.467 83.3068C225.406 78.7337 224.544 73.0588 223.345 70.72Z" fill="#2B9273"/>
<path id="Path_40" opacity="0.6" d="M223.345 70.72L221.627 74.5914C223.407 78.4567 225.033 82.2851 225.467 83.3068C225.406 78.7337 224.544 73.0588 223.345 70.72Z" fill="black"/>
<path id="Path_41" d="M200.61 64.1835C200.61 64.1835 195.829 69.6182 200.341 103.267H224.367C224.538 99.5742 222.22 81.4418 225.773 63.9496C223.117 63.4348 220.431 63.0936 217.732 62.9279C214.331 62.7308 210.921 62.7308 207.52 62.9279C205.188 63.1644 202.878 63.5842 200.61 64.1835Z" fill="#2B9273"/>
<path id="Path_42" opacity="0.4" d="M200.61 64.1835C200.61 64.1835 195.829 69.6182 200.341 103.267H224.367C224.538 99.5742 222.22 81.4418 225.773 63.9496C223.117 63.4348 220.431 63.0936 217.732 62.9279C214.331 62.7308 210.921 62.7308 207.52 62.9279C205.188 63.1644 202.878 63.5842 200.61 64.1835Z" fill="black"/>
<path id="Path_43" d="M198.831 70.72C198.672 71.994 198.55 73.502 198.47 75.2808C200.843 74.564 203.097 73.4979 205.16 72.1171L198.831 70.72Z" fill="#2B9273"/>
<path id="Path_44" opacity="0.6" d="M198.831 70.72C198.672 71.994 198.55 73.502 198.47 75.2808C200.843 74.564 203.097 73.4979 205.16 72.1171L198.831 70.72Z" fill="black"/>
<path id="Path_45" d="M209.128 71.397C205.912 74.2652 193.633 73.9759 193.633 73.9759L193.23 62.0107C197.376 62.6052 201.558 62.9096 205.747 62.9217C212.589 62.7801 212.638 68.2334 209.128 71.397Z" fill="#2B9273"/>
<path id="Path_46" opacity="0.4" d="M209.128 71.397C205.912 74.2652 193.633 73.9759 193.633 73.9759L193.23 62.0107C197.376 62.6052 201.558 62.9096 205.747 62.9217C212.589 62.7801 212.638 68.2334 209.128 71.397Z" fill="black"/>
<path id="Path_47" d="M168.018 48.7717L164.961 45.1465L161.665 48.8394C161.665 48.8394 163.695 52.2739 166.917 51.7322L168.018 48.7717Z" fill="#E4897B"/>
<path id="Path_48" d="M160.582 40.918L159.396 45.6511L161.64 48.8147L164.936 45.1464L160.582 40.918Z" fill="#E4897B"/>
<path id="Path_49" d="M207.141 207.815L207.373 213.206H211.868L211.636 207.815H207.141Z" fill="#CE6F64"/>
<path id="Path_50" d="M236.798 207.815H232.304L233.466 213.206H237.96L236.798 207.815Z" fill="#CE6F64"/>
<path id="Path_51" d="M209.844 41.8535C205.814 40.007 204.542 31.8025 216.136 33.8521C216.136 33.8521 214.387 35.7971 217.934 37.0281C221.48 38.259 218.515 45.8604 209.844 41.8535Z" fill="#263238"/>
<path id="Path_52" d="M218.6 48.0085C217.445 52.3169 216.992 54.9389 214.32 56.7423C210.321 59.4505 205.349 56.3423 205.19 51.7445C205.05 47.6146 206.964 41.2196 211.581 40.3456C213.653 39.9367 215.787 40.6395 217.218 42.202C218.65 43.7645 219.173 45.9628 218.6 48.0085Z" fill="#E4897B"/>
<path id="Path_53" d="M215.977 36.0063C218.723 37.545 222.44 38.4682 222.092 40.6594C221.633 43.3368 224.336 41.6626 223.706 45.6449C223.297 48.2484 218.527 56.139 215.145 55.7574C210.095 55.1419 210.737 47.4113 210.718 43.3368C210.706 40.9302 210.596 32.9719 215.977 36.0063Z" fill="#263238"/>
<path id="Path_54" d="M210.113 39.4592C208.89 39.7485 207.269 46.8451 212.008 47.4975C217.457 48.2423 210.113 39.4592 210.113 39.4592Z" fill="#263238"/>
<path id="Path_55" d="M210.235 41.9766C208.737 42.112 205.343 40.2963 205.759 37.5636C205.759 37.5451 207.905 40.758 210.235 41.9766Z" fill="#263238"/>
<path id="Path_56" d="M212.461 48.0637C212.001 49.0785 211.221 49.9117 210.241 50.4334C208.951 51.1104 208.223 50.1256 208.517 48.8208C208.78 47.6513 209.77 45.8849 211.097 45.7433C212.424 45.6018 212.993 46.8327 212.461 48.0637Z" fill="#E4897B"/>
<path id="Path_57" d="M219.187 43.0845C221.043 42.2738 222.371 40.579 222.722 38.573C222.722 38.573 224.739 44.2171 219.187 43.0845Z" fill="#263238"/>
<path id="Path_58" d="M224.287 42.9922C223.423 42.4079 222.325 42.2993 221.364 42.7029C221.364 42.7029 223.248 40.2471 224.287 42.9922Z" fill="#263238"/>
<path id="Path_59" d="M208.865 103.267C208.865 103.267 213.965 137.821 216.76 150.765C219.817 164.921 231.374 212.166 231.374 212.166H239.599C239.599 212.166 231.986 166.084 230.237 152.027C228.341 136.793 224.367 103.243 224.367 103.243L208.865 103.267Z" fill="#2B9273"/>
<path id="Path_60" opacity="0.5" d="M208.865 103.267C208.865 103.267 213.965 137.821 216.76 150.765C219.817 164.921 231.374 212.166 231.374 212.166H239.599C239.599 212.166 231.986 166.084 230.237 152.027C228.341 136.793 224.367 103.243 224.367 103.243L208.865 103.267Z" fill="white"/>
<path id="Path_61" d="M230.06 209.113C230.023 209.113 230.91 212.295 230.91 212.295H240.167L239.996 209.458L230.06 209.113Z" fill="#2B9273"/>
<path id="Path_62" opacity="0.1" d="M230.06 209.113C230.023 209.113 230.91 212.295 230.91 212.295H240.167L239.996 209.458L230.06 209.113Z" fill="black"/>
<path id="Path_63" d="M212.088 115.577C217.983 116.74 217.359 138.867 216.65 150.248C214.95 142.203 212.461 126.724 210.761 115.737C211.172 115.533 211.64 115.477 212.088 115.577Z" fill="#2B9273"/>
<path id="Path_64" opacity="0.4" d="M212.088 115.577C217.983 116.74 217.359 138.867 216.65 150.248C214.95 142.203 212.461 126.724 210.761 115.737C211.172 115.533 211.64 115.477 212.088 115.577Z" fill="white"/>
<path id="Path_65" d="M200.341 103.267C200.341 103.267 199.73 137.07 200.213 150.863C200.72 165.204 205.716 212.166 205.716 212.166H213.323C213.323 212.166 213.604 166.041 213.934 151.959C214.307 136.602 216.148 103.267 216.148 103.267L200.341 103.267Z" fill="#2B9273"/>
<path id="Path_66" opacity="0.5" d="M200.341 103.267C200.341 103.267 199.73 137.07 200.213 150.863C200.72 165.204 205.716 212.166 205.716 212.166H213.323C213.323 212.166 213.604 166.041 213.934 151.959C214.307 136.602 216.148 103.267 216.148 103.267L200.341 103.267Z" fill="white"/>
<path id="Path_67" d="M207.294 206.664C207.256 206.664 207.224 206.634 207.22 206.596C205.875 193.597 202.714 162.145 202.329 150.863C201.919 139.347 202.292 113.509 202.414 105.865C202.414 105.824 202.447 105.791 202.488 105.791C202.529 105.791 202.564 105.823 202.567 105.865C202.445 113.509 202.072 139.347 202.481 150.857C202.879 162.139 206.04 193.578 207.373 206.577C207.374 206.621 207.342 206.657 207.3 206.664H207.294Z" fill="#2B9273"/>
<path id="Path_68" opacity="0.4" d="M207.294 206.664C207.256 206.664 207.224 206.634 207.22 206.596C205.875 193.597 202.714 162.145 202.329 150.863C201.919 139.347 202.292 113.509 202.414 105.865C202.414 105.824 202.447 105.791 202.488 105.791C202.529 105.791 202.564 105.823 202.567 105.865C202.445 113.509 202.072 139.347 202.481 150.857C202.879 162.139 206.04 193.578 207.373 206.577C207.374 206.621 207.342 206.657 207.3 206.664H207.294Z" fill="white"/>
<path id="Path_69" d="M204.236 209.113C204.206 209.113 204.671 212.295 204.671 212.295H213.922L214.173 209.458L204.236 209.113Z" fill="#2B9273"/>
<path id="Path_70" opacity="0.1" d="M204.236 209.113C204.206 209.113 204.671 212.295 204.671 212.295H213.922L214.173 209.458L204.236 209.113Z" fill="black"/>
</g>
</g>
</svg>
